<?xml version="1.0" encoding="utf-8"?>
<!-- Generator: Adobe Illustrator 17.0.0, SVG Export Plug-In . SVG Version: 6.00 Build 0)  -->
<!DOCTYPE svg PUBLIC "-//W3C//DTD SVG 1.1//EN" "http://www.w3.org/Graphics/SVG/1.1/DTD/svg11.dtd">
<svg version="1.1" id="Layer_1" xmlns="http://www.w3.org/2000/svg" xmlns:xlink="http://www.w3.org/1999/xlink" x="0px" y="0px"
	 width="130px" height="31px" viewBox="0 0 130 31" enable-background="new 0 0 130 31" xml:space="preserve">
<g>
	<path fill="#FFFFFF" d="M130,28c0,1.667-1.333,3-3,3H3c-1.667,0-3-1.333-3-3V3c0-1.667,1.333-3,3-3h124c1.667,0,3,1.333,3,3V28z"/>
	<polygon fill-rule="evenodd" clip-rule="evenodd" fill="#003063" points="42,24 42,8.083 45.375,8.083 45.375,21.042 
		50.375,21.042 50.375,24 	"/>
	<polygon fill-rule="evenodd" clip-rule="evenodd" fill="#003063" points="84.292,24 84.292,8.083 93.708,8.083 93.708,10.833 
		87.667,10.833 87.667,14.5 92.375,14.5 92.375,17.25 87.667,17.25 87.667,21.167 93.708,21.167 93.708,24 	"/>
	<path fill-rule="evenodd" clip-rule="evenodd" fill="#003063" d="M100.958,10.667h-1.333v4.5h1.5c1.417,0,2-0.958,2-2.333
		C103.125,11.333,102.417,10.667,100.958,10.667z M103.375,24l-2.042-6.25h-1.708V24h-3.333V8.083h4.792
		c0.917,0,1.792,0,2.667,0.292c1.875,0.708,2.667,2.583,2.667,4.542c0,0.958-0.208,1.917-0.667,2.75c-0.417,0.667-0.833,1-1.5,1.375
		L107.083,24H103.375z"/>
	<path fill-rule="evenodd" clip-rule="evenodd" fill="#003063" d="M34.875,18l-1.542-6.417h-0.042L31.833,18H34.875z M36.292,24
		L35.5,20.75h-4.333L30.417,24h-3.125l4.625-15.917h3.417L39.75,24H36.292z"/>
	<path fill-rule="evenodd" clip-rule="evenodd" fill="#003063" d="M75.917,17.083H74.25v4.167h1.667c1.417,0,2.292-0.5,2.292-2.083
		C78.208,17.583,77.333,17.083,75.917,17.083z M75.583,10.667H74.25V14.5h1.083c1.417,0,2.458-0.25,2.458-1.958
		C77.792,11.042,76.875,10.667,75.583,10.667z M80,23.292C78.875,24.083,77.542,24,76.25,24h-5.292V8.083h5.292
		c1.208,0,2.458-0.042,3.542,0.708c1.042,0.708,1.458,2.25,1.458,3.5c0,0.875-0.167,1.75-0.708,2.417
		c-0.542,0.667-1.292,0.958-1.5,1v0.042c0.417,0.042,1.042,0.375,1.583,0.958c0.75,0.792,1.042,1.833,1.042,2.917
		C81.667,21,81.125,22.458,80,23.292z"/>
	<path fill-rule="evenodd" clip-rule="evenodd" fill="#003063" d="M118.542,24l-0.375-1.5c-0.875,1.292-2.417,1.75-3.667,1.75
		c-4.333,0-5.75-4.25-5.75-8.042c0-4.042,1.417-8.375,6.042-8.375c3.542,0,4.875,2.083,5.333,5.5l-3.083,0.5
		c-0.167-1.333-0.5-3.125-2.167-3.125c-2.458,0-2.542,3.667-2.542,5.417c0,1.875,0.083,5.292,2.625,5.292
		c1.792,0,2.042-1.708,2.083-3.167h-2.292V15.5h5.292V24H118.542z"/>
	<polygon fill="#003063" points="20.167,8.083 17.75,17.833 17.667,17.833 15.542,8.083 10.542,8.083 10.542,24 13.292,24 
		13.292,11.25 13.333,11.25 16.125,24 18.667,24 21.75,11.333 21.833,11.333 21.833,24 25.083,24 25.083,8.083 	"/>
	<path fill="#DA002F" d="M64.583,4.542l-5.042,1.292v9.708L59.5,15.583l-4.167-8.625l-5.167,1.333l3.792,15.75l2.917-0.792L54,11.25
		h0.042l5.583,11.292l2.417-0.625V9.167l0.042-0.042c0,0,2.208,8.5,2.458,9.625c0.458,1.833,1.375,2.292,2.875,1.917l1.125-0.292
		L64.583,4.542z"/>
</g>
</svg>
